<?xml version="1.0" encoding="UTF-8" standalone="no"?>
<!DOCTYPE svg PUBLIC "-//W3C//DTD SVG 1.1//EN"
 "http://www.w3.org/Graphics/SVG/1.1/DTD/svg11.dtd">
<!-- Generated by graphviz version 2.43.0 (0)
 -->
<!-- Title: graphname Pages: 1 -->
<svg width="402pt" height="116pt"
 viewBox="0.00 0.00 401.94 116.00" xmlns="http://www.w3.org/2000/svg" xmlns:xlink="http://www.w3.org/1999/xlink">
<g id="graph0" class="graph" transform="scale(1 1) rotate(0) translate(4 112)">
<title>graphname</title>
<polygon fill="white" stroke="transparent" points="-4,4 -4,-112 397.94,-112 397.94,4 -4,4"/>
<!-- output -->
<g id="node1" class="node">
<title>output</title>
<ellipse fill="none" stroke="black" cx="161.1" cy="-18" rx="66.09" ry="18"/>
<text text-anchor="middle" x="161.1" y="-14.3" font-family="Times,serif" font-size="14.00">Conv,output</text>
</g>
<!-- input -->
<g id="node2" class="node">
<title>input</title>
<ellipse fill="none" stroke="black" cx="35.1" cy="-90" rx="35.19" ry="18"/>
<text text-anchor="middle" x="35.1" y="-86.3" font-family="Times,serif" font-size="14.00">input</text>
</g>
<!-- input&#45;&gt;output -->
<g id="edge1" class="edge">
<title>input&#45;&gt;output</title>
<path fill="none" stroke="black" d="M58.21,-76.16C76.73,-65.87 103.07,-51.23 124.47,-39.35"/>
<polygon fill="black" stroke="black" points="126.25,-42.36 133.29,-34.45 122.85,-36.24 126.25,-42.36"/>
</g>
<!-- Variable/read -->
<g id="node3" class="node">
<title>Variable/read</title>
<ellipse fill="none" stroke="black" cx="161.1" cy="-90" rx="72.59" ry="18"/>
<text text-anchor="middle" x="161.1" y="-86.3" font-family="Times,serif" font-size="14.00">Variable/read</text>
</g>
<!-- Variable/read&#45;&gt;output -->
<g id="edge2" class="edge">
<title>Variable/read&#45;&gt;output</title>
<path fill="none" stroke="black" d="M161.1,-71.7C161.1,-63.98 161.1,-54.71 161.1,-46.11"/>
<polygon fill="black" stroke="black" points="164.6,-46.1 161.1,-36.1 157.6,-46.1 164.6,-46.1"/>
</g>
<!-- Conv2D_bias -->
<g id="node4" class="node">
<title>Conv2D_bias</title>
<ellipse fill="none" stroke="black" cx="323.1" cy="-90" rx="70.69" ry="18"/>
<text text-anchor="middle" x="323.1" y="-86.3" font-family="Times,serif" font-size="14.00">Conv2D_bias</text>
</g>
<!-- Conv2D_bias&#45;&gt;output -->
<g id="edge3" class="edge">
<title>Conv2D_bias&#45;&gt;output</title>
<path fill="none" stroke="black" d="M288.74,-74.15C264.09,-63.5 230.7,-49.07 204.25,-37.65"/>
<polygon fill="black" stroke="black" points="205.42,-34.34 194.85,-33.58 202.64,-40.76 205.42,-34.34"/>
</g>
</g>
</svg>
