<?xml version="1.0" encoding="UTF-8" standalone="no"?>
<!DOCTYPE svg PUBLIC "-//W3C//DTD SVG 1.1//EN"
 "http://www.w3.org/Graphics/SVG/1.1/DTD/svg11.dtd">
<!-- Generated by graphviz version 2.43.0 (0)
 -->
<!-- Title: onnxcli Pages: 1 -->
<svg width="473pt" height="210pt"
 viewBox="0.00 0.00 472.50 209.74" xmlns="http://www.w3.org/2000/svg" xmlns:xlink="http://www.w3.org/1999/xlink">
<g id="graph0" class="graph" transform="scale(1 1) rotate(0) translate(4 205.74)">
<title>onnxcli</title>
<polygon fill="white" stroke="transparent" points="-4,4 -4,-205.74 468.5,-205.74 468.5,4 -4,4"/>
<!-- node_output -->
<g id="node1" class="node">
<title>node_output</title>
<ellipse fill="none" stroke="black" cx="260" cy="-100.87" rx="54.39" ry="26.74"/>
<text text-anchor="middle" x="260" y="-104.67" font-family="Times,serif" font-size="14.00">output</text>
<text text-anchor="middle" x="260" y="-89.67" font-family="Times,serif" font-size="14.00">&lt;Conv&gt;</text>
</g>
<!-- tensor_output -->
<g id="node5" class="node">
<title>tensor_output</title>
<polygon fill="none" stroke="black" points="346.5,-38 173.5,-38 173.5,0 346.5,0 346.5,-38"/>
<text text-anchor="middle" x="260" y="-22.8" font-family="Times,serif" font-size="14.00">output</text>
<text text-anchor="middle" x="260" y="-7.8" font-family="Times,serif" font-size="14.00">FLOAT, [1, 16, 32, 32]</text>
</g>
<!-- node_output&#45;&gt;tensor_output -->
<g id="edge4" class="edge">
<title>node_output&#45;&gt;tensor_output</title>
<path fill="none" stroke="black" d="M260,-73.72C260,-65.53 260,-56.46 260,-48.14"/>
<polygon fill="black" stroke="black" points="263.5,-48.12 260,-38.12 256.5,-48.12 263.5,-48.12"/>
</g>
<!-- tensor_input -->
<g id="node2" class="node">
<title>tensor_input</title>
<polygon fill="none" stroke="black" points="164,-201.74 0,-201.74 0,-163.74 164,-163.74 164,-201.74"/>
<text text-anchor="middle" x="82" y="-186.54" font-family="Times,serif" font-size="14.00">input</text>
<text text-anchor="middle" x="82" y="-171.54" font-family="Times,serif" font-size="14.00">FLOAT, [1, 8, 32, 32]</text>
</g>
<!-- tensor_input&#45;&gt;node_output -->
<g id="edge1" class="edge">
<title>tensor_input&#45;&gt;node_output</title>
<path fill="none" stroke="black" d="M122.39,-163.62C148.84,-151.75 183.55,-136.17 211.49,-123.64"/>
<polygon fill="black" stroke="black" points="213,-126.8 220.69,-119.51 210.13,-120.41 213,-126.8"/>
</g>
<!-- tensor_Variable/read -->
<g id="node3" class="node">
<title>tensor_Variable/read</title>
<path fill="none" stroke="black" d="M325.5,-201.74C325.5,-201.74 194.5,-201.74 194.5,-201.74 188.5,-201.74 182.5,-195.74 182.5,-189.74 182.5,-189.74 182.5,-175.74 182.5,-175.74 182.5,-169.74 188.5,-163.74 194.5,-163.74 194.5,-163.74 325.5,-163.74 325.5,-163.74 331.5,-163.74 337.5,-169.74 337.5,-175.74 337.5,-175.74 337.5,-189.74 337.5,-189.74 337.5,-195.74 331.5,-201.74 325.5,-201.74"/>
<text text-anchor="middle" x="260" y="-186.54" font-family="Times,serif" font-size="14.00">Variable/read</text>
<text text-anchor="middle" x="260" y="-171.54" font-family="Times,serif" font-size="14.00">FLOAT, [16, 8, 3, 3]</text>
</g>
<!-- tensor_Variable/read&#45;&gt;node_output -->
<g id="edge2" class="edge">
<title>tensor_Variable/read&#45;&gt;node_output</title>
<path fill="none" stroke="black" d="M260,-163.62C260,-156.01 260,-146.88 260,-138"/>
<polygon fill="black" stroke="black" points="263.5,-137.8 260,-127.8 256.5,-137.8 263.5,-137.8"/>
</g>
<!-- tensor_Conv2D_bias -->
<g id="node4" class="node">
<title>tensor_Conv2D_bias</title>
<path fill="none" stroke="black" d="M452.5,-201.74C452.5,-201.74 367.5,-201.74 367.5,-201.74 361.5,-201.74 355.5,-195.74 355.5,-189.74 355.5,-189.74 355.5,-175.74 355.5,-175.74 355.5,-169.74 361.5,-163.74 367.5,-163.74 367.5,-163.74 452.5,-163.74 452.5,-163.74 458.5,-163.74 464.5,-169.74 464.5,-175.74 464.5,-175.74 464.5,-189.74 464.5,-189.74 464.5,-195.74 458.5,-201.74 452.5,-201.74"/>
<text text-anchor="middle" x="410" y="-186.54" font-family="Times,serif" font-size="14.00">Conv2D_bias</text>
<text text-anchor="middle" x="410" y="-171.54" font-family="Times,serif" font-size="14.00">FLOAT, [16]</text>
</g>
<!-- tensor_Conv2D_bias&#45;&gt;node_output -->
<g id="edge3" class="edge">
<title>tensor_Conv2D_bias&#45;&gt;node_output</title>
<path fill="none" stroke="black" d="M375.96,-163.62C354.99,-152.45 327.86,-138.01 305.12,-125.89"/>
<polygon fill="black" stroke="black" points="306.47,-122.65 295.99,-121.04 303.18,-128.83 306.47,-122.65"/>
</g>
</g>
</svg>
