<?xml version="1.0" encoding="UTF-8" standalone="no"?>
<!DOCTYPE svg PUBLIC "-//W3C//DTD SVG 1.1//EN"
 "http://www.w3.org/Graphics/SVG/1.1/DTD/svg11.dtd">
<!-- Generated by graphviz version 2.43.0 (0)
 -->
<!-- Title: onnxcli Pages: 1 -->
<svg width="473pt" height="136pt"
 viewBox="0.00 0.00 472.50 135.74" xmlns="http://www.w3.org/2000/svg" xmlns:xlink="http://www.w3.org/1999/xlink">
<g id="graph0" class="graph" transform="scale(1 1) rotate(0) translate(4 131.74)">
<title>onnxcli</title>
<polygon fill="white" stroke="transparent" points="-4,4 -4,-131.74 468.5,-131.74 468.5,4 -4,4"/>
<!-- output -->
<g id="node1" class="node">
<title>output</title>
<ellipse fill="none" stroke="black" cx="260" cy="-26.87" rx="54.39" ry="26.74"/>
<text text-anchor="middle" x="260" y="-30.67" font-family="Times,serif" font-size="14.00">output</text>
<text text-anchor="middle" x="260" y="-15.67" font-family="Times,serif" font-size="14.00">&lt;Conv&gt;</text>
</g>
<!-- input -->
<g id="node2" class="node">
<title>input</title>
<polygon fill="none" stroke="black" points="164,-127.74 0,-127.74 0,-89.74 164,-89.74 164,-127.74"/>
<text text-anchor="middle" x="82" y="-112.54" font-family="Times,serif" font-size="14.00">input</text>
<text text-anchor="middle" x="82" y="-97.54" font-family="Times,serif" font-size="14.00">FLOAT, [1, 8, 32, 32]</text>
</g>
<!-- input&#45;&gt;output -->
<g id="edge1" class="edge">
<title>input&#45;&gt;output</title>
<path fill="none" stroke="black" d="M122.39,-89.62C148.84,-77.75 183.55,-62.17 211.49,-49.64"/>
<polygon fill="black" stroke="black" points="213,-52.8 220.69,-45.51 210.13,-46.41 213,-52.8"/>
</g>
<!-- Variable/read -->
<g id="node3" class="node">
<title>Variable/read</title>
<path fill="none" stroke="black" d="M325.5,-127.74C325.5,-127.74 194.5,-127.74 194.5,-127.74 188.5,-127.74 182.5,-121.74 182.5,-115.74 182.5,-115.74 182.5,-101.74 182.5,-101.74 182.5,-95.74 188.5,-89.74 194.5,-89.74 194.5,-89.74 325.5,-89.74 325.5,-89.74 331.5,-89.74 337.5,-95.74 337.5,-101.74 337.5,-101.74 337.5,-115.74 337.5,-115.74 337.5,-121.74 331.5,-127.74 325.5,-127.74"/>
<text text-anchor="middle" x="260" y="-112.54" font-family="Times,serif" font-size="14.00">Variable/read</text>
<text text-anchor="middle" x="260" y="-97.54" font-family="Times,serif" font-size="14.00">FLOAT, [16, 8, 3, 3]</text>
</g>
<!-- Variable/read&#45;&gt;output -->
<g id="edge2" class="edge">
<title>Variable/read&#45;&gt;output</title>
<path fill="none" stroke="black" d="M260,-89.62C260,-82.01 260,-72.88 260,-64"/>
<polygon fill="black" stroke="black" points="263.5,-63.8 260,-53.8 256.5,-63.8 263.5,-63.8"/>
</g>
<!-- Conv2D_bias -->
<g id="node4" class="node">
<title>Conv2D_bias</title>
<path fill="none" stroke="black" d="M452.5,-127.74C452.5,-127.74 367.5,-127.74 367.5,-127.74 361.5,-127.74 355.5,-121.74 355.5,-115.74 355.5,-115.74 355.5,-101.74 355.5,-101.74 355.5,-95.74 361.5,-89.74 367.5,-89.74 367.5,-89.74 452.5,-89.74 452.5,-89.74 458.5,-89.74 464.5,-95.74 464.5,-101.74 464.5,-101.74 464.5,-115.74 464.5,-115.74 464.5,-121.74 458.5,-127.74 452.5,-127.74"/>
<text text-anchor="middle" x="410" y="-112.54" font-family="Times,serif" font-size="14.00">Conv2D_bias</text>
<text text-anchor="middle" x="410" y="-97.54" font-family="Times,serif" font-size="14.00">FLOAT, [16]</text>
</g>
<!-- Conv2D_bias&#45;&gt;output -->
<g id="edge3" class="edge">
<title>Conv2D_bias&#45;&gt;output</title>
<path fill="none" stroke="black" d="M375.96,-89.62C354.99,-78.45 327.86,-64.01 305.12,-51.89"/>
<polygon fill="black" stroke="black" points="306.47,-48.65 295.99,-47.04 303.18,-54.83 306.47,-48.65"/>
</g>
</g>
</svg>
